<?xml version="1.0" encoding="UTF-8"?>
<svg id="Layer_2" data-name="Layer 2" xmlns="http://www.w3.org/2000/svg" xmlns:xlink="http://www.w3.org/1999/xlink" viewBox="0 0 50.07 45.07">
  <defs>
    <style>
      .cls-1 {
        fill: url(#linear-gradient);
      }
    </style>
    <linearGradient id="linear-gradient" x1="10.61" y1="6.48" x2="39.53" y2="35.41" gradientUnits="userSpaceOnUse">
      <stop offset="0" stop-color="#2e1c09"/>
      <stop offset="1" stop-color="#4d2f0f"/>
    </linearGradient>
  </defs>
  <g id="Layer_1-2" data-name="Layer 1">
    <path class="cls-1" d="M50.04,19.9c-.33-3.21-2.67-6.29-5.63-7.58-3.17-1.42-6.5-.75-9.71.17-.79-3.04-3.29-5.58-6.25-6.63.46-1.21,1.25-2.21,2.46-2.67.79-.29,1.71-.12,2.21-.92.38-.58.33-1.29-.13-1.79-.63-.67-1.54-.5-2.33-.29-2.46.63-4.38,2.67-5.04,5.13h-1.17c-.67-2.46-2.58-4.5-5.04-5.13-.79-.21-1.71-.38-2.33.29-.46.5-.5,1.21-.13,1.79.5.79,1.42.63,2.21.92,1.21.46,2,1.46,2.46,2.67-2.96,1.04-5.46,3.58-6.25,6.63-3.21-.92-6.54-1.58-9.71-.17C2.7,13.6.36,16.69.03,19.9c-.04.54-.04,1.54,0,2.04.38,3.63,3.25,6.96,6.71,7.96,2.75.79,5.33.17,8.04-.46v2.2c0,.96.1,1.93.33,2.86,0,0,0,.01,0,.02,1.04,3.87,4.44,6.86,8.39,7.45v1.54c0,.67.43,1.24,1.03,1.45.01,0,.03,0,.04.01.14.05.28.08.44.08,0,0,.02,0,.03,0s.02,0,.03,0c.15,0,.3-.03.44-.08.01,0,.03,0,.04-.01.6-.22,1.03-.78,1.03-1.45v-1.54c3.95-.59,7.35-3.59,8.39-7.45,0,0,0-.01,0-.02.23-.94.33-1.9.33-2.86v-2.2c2.71.63,5.29,1.25,8.04.46,3.46-1,6.33-4.33,6.71-7.96.04-.5.04-1.5,0-2.04ZM25.04,8.19c3,0,6,1.83,7,5.21-1.5.75-3,1.38-4.33,2.33-1,.71-2.08,1.67-2.67,2.71-.58-1.04-1.67-2-2.67-2.71-1.33-.96-2.83-1.58-4.33-2.33,1-3.38,4-5.21,7-5.21ZM26.79,25.31c.63.54,1.38.96,2.04,1.5h-7.58c.67-.54,1.42-.96,2.04-1.5.63-.54,1.25-1.21,1.75-1.92.5.71,1.13,1.38,1.75,1.92ZM9.49,27.48v-.04c-3.71,0-6.75-3.29-6.5-6.96.21-2.92,2.63-5.63,5.54-5.96,3.5-.42,9.92,1.88,12.67,4.08,1,.79,2.04,1.88,1.38,3.21-1.5,2.96-9.92,5.71-13.09,5.67ZM25.04,39.19c-2.54,0-4.92-1.29-6.21-3.54h12.42c-1.29,2.25-3.67,3.54-6.21,3.54ZM32.37,32.57l-.17.17h-14.34l-.17-.17v-2.79h14.67v2.79ZM40.58,27.44v.04c-3.17.04-11.59-2.71-13.09-5.67-.67-1.33.38-2.42,1.38-3.21,2.75-2.21,9.17-4.5,12.67-4.08,2.92.33,5.33,3.04,5.54,5.96.25,3.67-2.79,6.96-6.5,6.96Z"/>
  </g>
</svg>